<?xml version="1.0" encoding="UTF-8" standalone="no"?>
<!-- Created with Inkscape (http://www.inkscape.org/) -->

<svg
   width="50"
   height="40"
   viewBox="0 0 13.229166 10.583334"
   version="1.1"
   id="svg1"
   inkscape:export-filename="clock_trigger.png"
   inkscape:export-xdpi="200.10001"
   inkscape:export-ydpi="200.10001"
   inkscape:version="1.3.2 (091e20ef0f, 2023-11-25, custom)"
   sodipodi:docname="fiber.svg"
   xml:space="preserve"
   xmlns:inkscape="http://www.inkscape.org/namespaces/inkscape"
   xmlns:sodipodi="http://sodipodi.sourceforge.net/DTD/sodipodi-0.dtd"
   xmlns="http://www.w3.org/2000/svg"
   xmlns:svg="http://www.w3.org/2000/svg"><sodipodi:namedview
     id="namedview1"
     pagecolor="#000000"
     bordercolor="#000000"
     borderopacity="0.25"
     inkscape:showpageshadow="2"
     inkscape:pageopacity="0.0"
     inkscape:pagecheckerboard="0"
     inkscape:deskcolor="#d1d1d1"
     inkscape:document-units="mm"
     inkscape:zoom="8"
     inkscape:cx="33.8125"
     inkscape:cy="5.9375"
     inkscape:window-width="1878"
     inkscape:window-height="1017"
     inkscape:window-x="0"
     inkscape:window-y="0"
     inkscape:window-maximized="1"
     inkscape:current-layer="layer1" /><defs
     id="defs1" /><g
     inkscape:label="Layer 1"
     inkscape:groupmode="layer"
     id="layer1"><g
       id="g15"
       transform="translate(0.49964701,0.3617907)"><path
         style="opacity:0.99;fill:none;stroke:#ffffff;stroke-width:0.264999;stroke-linecap:round;stroke-linejoin:round;stroke-dasharray:none"
         d="m 3.2803092,3.7525071 v 2.7147956 c 0,0 0.1222242,1.3072078 0.8704709,1.5076998 C 4.8990268,8.1754947 5.4355986,8.1320749 6.0330277,7.5346458 6.6304569,6.9372166 7.4244155,5.8396687 7.0220551,4.9111331 6.6537402,4.0611651 5.6483109,4.0458502 5.2764512,4.8359924 4.9045915,5.6261345 5.2844056,7.0776294 6.1679446,7.6197769 7.221381,8.266175 8.2014659,7.8752385 8.552318,7.4658701 8.8141995,7.0281096 8.8837401,6.9634874 8.8993855,6.1705965 c 0.01526,-0.7733765 0.0087,-2.5398158 0.0087,-2.5398158"
         id="path10"
         sodipodi:nodetypes="ccssssscsc" /><g
         id="g14"
         transform="translate(0.03797955,-0.12855923)"><rect
           style="opacity:0.99;fill:#ffffff;fill-opacity:1;stroke:#ffffff;stroke-width:0.264999;stroke-linecap:round;stroke-linejoin:round;stroke-dasharray:none"
           id="rect10"
           width="0.61813259"
           height="0.6526407"
           x="2.9302716"
           y="2.4070992"
           ry="0.096604638" /><rect
           style="opacity:0.99;fill:#ffffff;fill-opacity:1;stroke:#ffffff;stroke-width:0.264999;stroke-linecap:round;stroke-linejoin:round;stroke-dasharray:none"
           id="rect11"
           width="0.21689221"
           height="0.50362295"
           x="3.129807"
           y="1.9055318"
           ry="0.096604638" /><path
           style="opacity:0.99;fill:#ffffff;fill-opacity:1;stroke:#ffffff;stroke-width:0.264999;stroke-linecap:round;stroke-linejoin:round;stroke-dasharray:none"
           id="path11"
           sodipodi:type="arc"
           sodipodi:cx="3.2504258"
           sodipodi:cy="3.5360034"
           sodipodi:rx="0.32789618"
           sodipodi:ry="0.24436629"
           sodipodi:start="0"
           sodipodi:end="3.1415927"
           sodipodi:arc-type="slice"
           d="m 3.578322,3.5360034 a 0.32789618,0.24436629 0 0 1 -0.1639481,0.2116274 0.32789618,0.24436629 0 0 1 -0.3278962,0 0.32789618,0.24436629 0 0 1 -0.1639481,-0.2116274 h 0.3278962 z" /></g><g
         id="g13"><rect
           style="opacity:0.99;fill:#ffffff;fill-opacity:1;stroke:#ffffff;stroke-width:0.264999;stroke-linecap:round;stroke-linejoin:round;stroke-dasharray:none"
           id="rect10-4"
           width="0.61813259"
           height="0.6526407"
           x="8.6213131"
           y="2.2785401"
           ry="0.096604638" /><rect
           style="opacity:0.99;fill:#ffffff;fill-opacity:1;stroke:#ffffff;stroke-width:0.264999;stroke-linecap:round;stroke-linejoin:round;stroke-dasharray:none"
           id="rect11-7"
           width="0.21689221"
           height="0.50362295"
           x="8.8208485"
           y="1.7769727"
           ry="0.096604638" /><path
           style="opacity:0.99;fill:#ffffff;fill-opacity:1;stroke:#ffffff;stroke-width:0.264999;stroke-linecap:round;stroke-linejoin:round;stroke-dasharray:none"
           id="path11-4"
           sodipodi:type="arc"
           sodipodi:cx="8.9414673"
           sodipodi:cy="3.407444"
           sodipodi:rx="0.32789618"
           sodipodi:ry="0.24436629"
           sodipodi:start="0"
           sodipodi:end="3.1415927"
           sodipodi:arc-type="slice"
           d="m 9.2693635,3.407444 a 0.32789618,0.24436629 0 0 1 -0.1639481,0.2116274 0.32789618,0.24436629 0 0 1 -0.3278962,0 A 0.32789618,0.24436629 0 0 1 8.6135711,3.407444 h 0.3278962 z" /></g></g></g></svg>
