<?xml version="1.0" encoding="UTF-8" standalone="no"?>
<!-- Created with Inkscape (http://www.inkscape.org/) -->

<svg
   width="50"
   height="40"
   viewBox="0 0 13.229166 10.583334"
   version="1.1"
   id="svg1"
   inkscape:export-filename="single_photon_source.png"
   inkscape:export-xdpi="96"
   inkscape:export-ydpi="96"
   inkscape:version="1.3.2 (091e20ef0f, 2023-11-25, custom)"
   sodipodi:docname="single_photon_source.svg"
   xmlns:inkscape="http://www.inkscape.org/namespaces/inkscape"
   xmlns:sodipodi="http://sodipodi.sourceforge.net/DTD/sodipodi-0.dtd"
   xmlns="http://www.w3.org/2000/svg"
   xmlns:svg="http://www.w3.org/2000/svg">
  <sodipodi:namedview
     id="namedview1"
     pagecolor="#000000"
     bordercolor="#000000"
     borderopacity="0.25"
     inkscape:showpageshadow="2"
     inkscape:pageopacity="0.0"
     inkscape:pagecheckerboard="0"
     inkscape:deskcolor="#d1d1d1"
     inkscape:document-units="mm"
     inkscape:zoom="13.690523"
     inkscape:cx="17.20168"
     inkscape:cy="13.147781"
     inkscape:window-width="1878"
     inkscape:window-height="1014"
     inkscape:window-x="0"
     inkscape:window-y="0"
     inkscape:window-maximized="1"
     inkscape:current-layer="layer1" />
  <defs
     id="defs1" />
  <g
     inkscape:label="Layer 1"
     inkscape:groupmode="layer"
     id="layer1">
    <g
       id="g5">
      <path
         id="rect2"
         style="fill:#ffffff;stroke-width:0.564999;stroke-linecap:round"
         d="m 2.9987836,1.2681396 c -0.2259026,0 -0.4077271,0.1818245 -0.4077271,0.4077271 v 7.2315999 c 0,0.2259026 0.1818245,0.4077271 0.4077271,0.4077271 h 7.2315994 c 0.225903,0 0.407727,-0.1818245 0.407727,-0.4077271 V 1.6758667 c 0,-0.2259026 -0.181824,-0.4077271 -0.407727,-0.4077271 z m 0.697115,0.6862631 h 5.8373696 c 0.231931,0 0.418579,0.1866486 0.418579,0.4185791 v 5.8373698 c 0,0.2319304 -0.186648,0.4185791 -0.418579,0.4185791 H 3.6958986 c -0.2319304,0 -0.4185791,-0.1866487 -0.4185791,-0.4185791 V 2.3729818 c 0,-0.2319305 0.1866487,-0.4185791 0.4185791,-0.4185791 z" />
      <path
         style="opacity:0.99;fill:#ffffff;stroke-width:0.564999;stroke-linecap:round"
         d="M 2.9613352,1.7185815 10.09743,8.8546767"
         id="path3" />
      <path
         style="opacity:0.99;fill:#ececec;stroke-width:0.564999;stroke-linecap:round"
         d="M 2.8342063,1.5056178 10.111887,8.9100503"
         id="path4" />
      <path
         style="opacity:0.99;fill:#ececec;stroke:#ffffff;stroke-width:0.564999;stroke-linecap:round;stroke-opacity:1"
         d="M 3.0974175,1.8053771 10.042517,8.7609704"
         id="path5"
         sodipodi:nodetypes="cc" />
    </g>
  </g>
</svg>
